PathFileType	4	(X/Y/Z)	C:\Users\Basilio\Documents\Thesis Gigler\squatting_fais\c3dfiles\044\SJ_pre1\markers_experimental.trc
DataRate	CameraRate	NumFrames	NumMarkers	Units	OrigDataRate	OrigDataStartFrame	OrigNumFrames
200.000000	200.000000	4	63	mm	200.000000	880	1409
Frame#	Time	FHD			LBHD			RBHD			C7			T10			CLAV			LSHO			LUUPA			LMUPA			LDUPA			LLEP			LMEP			LRAD			LUL			LRFIN			RSHO			RUPA1			RMUPA			RDUPA			RLEP			RMEP			RRAD			RUL			RUFIN			LASI			RASI			USACR			LSACR			RSACR			LTHI1			LTHI2			LTHI3			LTHI4			LLFC			LMFC			LTIB1			LTIB2			LTIB3			LTIB4			LLMAL			LMMAL			LHEE			LMT1			LMT2			LMT5			RTHI			RTHI2			RTHI3			RTHI4			RLFC			RMFC			RTIB1			RTIB2			RTIB3			RTIB4			RLMAL			RMMAL			RHEE			RMT1			RMT2			RMT5			*61			*62			
		X1	Y1	Z1	X2	Y2	Z2	X3	Y3	Z3	X4	Y4	Z4	X5	Y5	Z5	X6	Y6	Z6	X7	Y7	Z7	X8	Y8	Z8	X9	Y9	Z9	X10	Y10	Z10	X11	Y11	Z11	X12	Y12	Z12	X13	Y13	Z13	X14	Y14	Z14	X15	Y15	Z15	X16	Y16	Z16	X17	Y17	Z17	X18	Y18	Z18	X19	Y19	Z19	X20	Y20	Z20	X21	Y21	Z21	X22	Y22	Z22	X23	Y23	Z23	X24	Y24	Z24	X25	Y25	Z25	X26	Y26	Z26	X27	Y27	Z27	X28	Y28	Z28	X29	Y29	Z29	X30	Y30	Z30	X31	Y31	Z31	X32	Y32	Z32	X33	Y33	Z33	X34	Y34	Z34	X35	Y35	Z35	X36	Y36	Z36	X37	Y37	Z37	X38	Y38	Z38	X39	Y39	Z39	X40	Y40	Z40	X41	Y41	Z41	X42	Y42	Z42	X43	Y43	Z43	X44	Y44	Z44	X45	Y45	Z45	X46	Y46	Z46	X47	Y47	Z47	X48	Y48	Z48	X49	Y49	Z49	X50	Y50	Z50	X51	Y51	Z51	X52	Y52	Z52	X53	Y53	Z53	X54	Y54	Z54	X55	Y55	Z55	X56	Y56	Z56	X57	Y57	Z57	X58	Y58	Z58	X59	Y59	Z59	X60	Y60	Z60	X61	Y61	Z61	X62	Y62	Z62	X63	Y63	Z63	

881	4.4	52.71554565429689	1208.519775390625	-921.2068481445315	-73.20767211914064	1157.12255859375	-1003.31591796875	-122.443099975586	1141.325927734375	-844.1414184570315	-176.3339080810547	1057.995483398438	-919.0923461914065	-410.3142395019532	879.565612792969	-895.2121582031252	-91.0697479248047	928.9615478515627	-919.199401855469	-112.1075820922852	985.3057250976565	-1091.628662109375	-280.6023864746094	924.5755615234377	-1243.283569335938	-296.5803527832032	880.0347900390627	-1230.674072265625	-337.3967590332032	896.4332275390627	-1272.377075195313	-386.8787536621095	862.0904541015627	-1282.787963867188	-431.064910888672	921.3450927734377	-1239.478515625	-547.6986694335939	709.1233520507814	-1107.393432617188	-523.3208007812501	662.0106201171876	-1153.127319335938	-494.4765625000001	696.2661132812501	-1071.94189453125	-105.1863098144532	977.6707153320315	-735.7501220703126	-242.4621582031251	919.3813476562502	-567.2528686523439	-257.1555480957032	871.9578857421877	-573.6927490234376	-290.6215209960938	887.7532958984377	-526.5878295898439	-335.6146545410157	847.0312500000002	-507.994842529297	-396.3568115234376	903.6819458007815	-539.1649780273439	-520.9385375976564	690.9697875976564	-654.3886718750001	-485.5720520019532	644.9402465820314	-608.9432373046876	-463.7159423828126	682.2679443359376	-698.5917968750001	-431.3690490722657	645.1892089843751	-1005.536926269531	-421.1383056640626	632.9017944335939	-783.3621826171877	-531.8679809570314	769.205261230469	-878.3084106445315	-562.7935180664064	750.4834594726564	-901.3356933593752	-553.4038696289064	749.9678955078126	-846.6662597656252	-455.6729125976564	549.9524536132814	-1109.856567382813	-372.3707580566407	541.7961425781251	-1129.753295898438	-348.0029602050782	580.9808959960939	-1117.995239257813	-340.3278503417969	492.2227478027345	-1137.024291992188	-211.1375732421876	421.0218505859376	-1147.281372070313	-191.824691772461	401.5987243652345	-1033.285278320313	-255.3142852783204	262.9833374023438	-1066.933349609375	-306.9667663574219	233.7556610107422	-1134.510864257813	-281.5903015136719	217.7479553222657	-1098.293823242188	-338.1743469238282	165.3026885986328	-1063.506469726563	-448.8992614746095	92.70567321777345	-1105.691284179688	-423.8535766601564	100.2126083374024	-1020.22509765625	-514.5827636718751	49.97850418090822	-1056.19580078125	-297.1272277832032	60.22173309326173	-1050.449096679688	-302.4761047363282	62.44338989257814	-1097.036743164063	-340.0719909667969	42.41434478759766	-1141.78369140625	-380.6033630371094	505.5232543945314	-688.1614379882814	-312.2693481445313	516.7677001953126	-687.2265625000001	-297.7528686523438	543.8768310546876	-694.8646850585939	-255.3700408935547	454.3587951660157	-694.9202270507814	-186.5357818603516	399.0189819335939	-705.1080322265626	-189.4948425292969	391.8421325683595	-825.7886962890627	-202.4861145019532	270.7457885742188	-739.7707519531251	-300.8033447265626	257.2041320800782	-687.2401123046876	-272.8276367187501	226.7468261718751	-706.7900390625001	-298.7251281738282	182.7186126708985	-733.7005004882814	-449.427459716797	98.02980804443362	-706.0145874023439	-427.9993896484376	98.96894073486331	-794.6982421875002	-513.8953247070314	53.51798629760744	-752.8206176757814	-301.3313903808594	60.40452957153322	-763.4711914062501	-297.6983947753907	58.58790588378908	-727.1467895507814	-335.1581420898438	41.72183227539063	-673.8106689453126	nan	nan	nan	nan	nan	nan	
882	4.405	49.24559402465822	1216.313232421875	-920.744323730469	-75.98926544189455	1163.23291015625	-1002.857299804688	-124.5780563354492	1146.713134765625	-843.6284179687502	-177.3125305175782	1062.989624023438	-918.8843383789065	-410.149627685547	882.9901123046877	-895.2246093750002	-91.18330383300783	935.4677734375002	-918.842712402344	-112.3678894042969	990.9749755859377	-1091.416381835938	-280.0778503417969	928.7800292968752	-1243.3623046875	-295.7472534179688	884.1526489257815	-1230.671875	-336.4978942871094	900.321716308594	-1272.412475585938	-385.9446411132814	865.2749023437502	-1282.805541992188	-430.4730224609376	924.5378417968752	-1239.71240234375	-545.7434692382814	711.2300415039064	-1107.730712890625	-520.1980590820314	665.1812744140626	-1154.181762695313	-492.8907775878907	698.9057617187501	-1072.260620117188	-105.5337371826172	983.2229003906252	-735.5808715820314	-242.4879302978516	923.5402832031252	-567.2816162109376	-256.8706665039063	876.2296142578127	-573.5922851562501	-290.4894409179688	891.4691162109377	-526.4128417968751	-335.2477416992188	850.5892333984377	-508.0984191894532	-396.2234497070314	906.8570556640627	-538.9100341796876	-519.7415771484376	693.4982299804689	-654.4833984375001	-483.8911743164064	647.6931762695314	-609.3147583007814	-462.0337219238282	684.8108520507814	-698.4165649414064	-431.2410583496095	647.4260253906251	-1005.779418945313	-420.4457092285157	635.4348144531251	-783.8741455078127	-530.5728149414064	772.4212036132815	-878.6421508789065	-561.6584472656251	753.8706054687501	-901.452331542969	-552.2042236328126	753.2595825195314	-846.8335571289065	-454.544647216797	552.3408813476564	-1109.68798828125	-370.9303283691407	543.4349975585939	-1129.56103515625	-346.2209167480469	582.4740600585939	-1117.72998046875	-339.4456787109376	493.3743286132814	-1136.593383789063	-210.6938171386719	421.0580444335939	-1146.563842773438	-191.8709869384766	401.7021789550782	-1032.47900390625	-255.1850128173829	262.9719238281251	-1066.560302734375	-306.7783813476563	233.8692169189454	-1134.109985351563	-281.4204406738282	217.7323608398438	-1097.63818359375	-338.0721130371094	165.3797760009766	-1063.172973632813	-448.8522949218751	92.85465240478517	-1105.738891601563	-423.8129272460939	100.1878509521485	-1020.150146484375	-514.4845581054689	50.03591918945314	-1056.226684570313	-297.1007080078126	60.12040328979494	-1050.411865234375	-302.4706420898438	62.45712280273439	-1097.020385742188	-340.1518249511719	42.43967819213868	-1141.753173828125	-379.8605651855469	507.3215637207032	-687.9650878906251	-311.5187377929688	518.4646606445314	-687.2445678710939	-296.4619750976563	545.2157592773439	-695.3386230468751	-255.0183410644532	455.4465942382814	-695.0991210937501	-186.5810699462891	399.4908142089845	-705.1271362304689	-189.3846893310547	392.2025451660157	-825.703063964844	-202.6229705810547	270.5753784179688	-740.1115112304689	-300.7170104980469	257.3074645996094	-687.0686035156251	-272.7725830078126	227.2713012695313	-706.7104492187501	-298.4681701660157	182.7950897216797	-733.5806274414064	-449.3704528808595	98.13875579833987	-705.8397827148439	-428.0059204101564	99.17810821533206	-794.608581542969	-513.7620849609376	53.59849166870119	-752.7652587890626	-301.2339782714844	60.37811279296876	-763.4073486328126	-297.6368713378907	58.56655120849611	-727.0747680664064	-335.1513366699219	41.71071243286134	-673.8081665039064	nan	nan	nan	nan	nan	nan	
883	4.41	45.80210876464844	1224.376953125	-920.738952636719	-78.61863708496095	1169.761596679688	-1002.55859375	-126.7680435180664	1152.370361328125	-843.2000732421877	-178.4658355712891	1068.35693359375	-918.4996337890627	-409.7086181640626	886.763610839844	-895.406921386719	-91.32692718505861	941.7381591796877	-918.613708496094	-112.5882034301758	997.0927734375002	-1091.268310546875	-279.6216735839844	933.2556762695315	-1243.305908203125	-294.8275756835938	888.4569091796877	-1230.705932617188	-335.8367919921876	904.2521972656252	-1272.530029296875	-384.9058532714845	868.9847412109377	-1282.798950195313	-430.0106506347657	927.621276855469	-1239.92822265625	-544.1546630859376	713.6918334960939	-1108.204956054688	-519.4869995117189	667.2503662109376	-1153.860717773438	-491.2787475585939	701.6549072265626	-1072.731567382813	-106.1522750854492	989.2586669921877	-735.5049438476564	-242.6352996826172	928.2786865234377	-566.9578857421876	-256.5673828125001	880.825866699219	-573.4015502929689	-290.2745971679688	895.2835083007815	-526.3696899414064	-334.9027404785157	854.1614379882815	-507.9795532226564	-396.2417297363282	910.343200683594	-538.5776367187501	-518.2022705078126	696.3118286132814	-654.4406127929689	-482.3371582031251	650.4170532226564	-609.2048339843751	-460.5222473144532	687.5949707031251	-698.3740844726564	-429.0617980957032	650.8948974609376	-1005.149780273438	-419.3740844726564	639.0774536132814	-783.4421997070315	-529.5272216796876	775.7196044921877	-878.6934814453127	-560.2471923828126	757.2166137695314	-901.6992187500002	-551.0933227539064	756.5882568359376	-847.0363769531252	-453.2654724121095	554.2044067382814	-1109.5830078125	-369.6597900390626	545.0928955078126	-1129.1318359375	-344.9198608398438	583.8891601562501	-1117.589233398438	-338.6424255371094	494.5169067382814	-1136.15234375	-210.3798217773438	421.0473937988282	-1145.830688476563	-191.8387908935547	401.9949951171876	-1031.647827148438	-255.1166229248047	263.0011901855469	-1065.994506835938	-306.2390136718751	234.3520507812501	-1133.64697265625	-281.1985778808594	217.8110809326172	-1097.2275390625	-338.0024108886719	165.4147033691407	-1062.951416015625	-448.7343139648439	93.24077606201173	-1105.757202148438	-423.7974548339845	100.2897872924805	-1020.150817871094	-514.5345458984376	50.08068084716798	-1056.248168945313	-297.0132751464844	60.13136672973634	-1050.480224609375	-302.5314025878907	62.37065505981447	-1097.026733398438	-340.1107482910157	42.38719558715821	-1141.769409179688	-378.9553222656251	509.4123840332032	-688.5273437500001	-310.7696228027344	519.9201049804689	-687.2878417968751	-295.5808410644532	546.6097412109376	-694.8783569335939	-254.5165405273438	456.627899169922	-695.2310180664064	-186.4472198486328	399.8509521484376	-705.2563476562501	-189.4539947509766	392.5813598632814	-825.663024902344	-202.5473632812501	270.8023376464844	-739.9219360351564	-300.6612243652344	257.4102478027344	-686.9890136718751	-272.7021484375001	227.6289978027344	-706.6026611328126	-298.2843627929688	182.8292541503907	-733.4310913085939	-449.3838806152345	98.47333526611331	-705.7999877929689	-427.8641662597657	99.43635559082034	-794.4514160156252	-513.7058715820314	53.92834472656251	-752.7527465820314	-301.1912231445313	60.37044143676759	-763.3013305664064	-297.5855712890626	58.54441833496095	-727.0152587890626	-335.0718383789063	41.53538131713868	-673.7084350585939	nan	nan	nan	nan	nan	nan	
884	4.415	41.87145996093751	1233.293823242188	-920.3232421875002	-82.01426696777345	1176.413696289063	-1002.045715332031	-129.5899963378907	1158.461059570313	-842.5130615234377	-179.4877624511719	1073.916625976563	-918.084655761719	-409.471893310547	890.6134033203127	-895.4127197265627	-91.03816986083986	948.8093872070315	-918.3340454101565	-112.8771896362305	1003.299499511719	-1091.0908203125	-279.1006774902344	938.046813964844	-1243.28173828125	-294.0907592773438	893.2156982421877	-1230.473266601563	-335.1240539550782	908.523620605469	-1272.631103515625	-383.8637084960938	872.716735839844	-1282.830200195313	-429.5835876464845	931.1570434570315	-1240.06787109375	-542.6535644531251	717.0292358398439	-1108.743896484375	-516.8972778320314	670.5861816406251	-1154.63916015625	-489.4546508789064	704.7117919921876	-1073.1943359375	-107.0520477294922	995.5003662109377	-735.2799682617189	-242.6656036376954	932.8010864257815	-567.0675048828126	-256.1813049316407	885.458923339844	-573.2526855468751	-290.1939086914063	899.514099121094	-526.1282348632814	-334.3950500488282	858.173767089844	-508.0519104003907	-396.1190795898439	913.4980468750002	-538.4304809570314	-516.4575195312501	698.9023437500001	-654.3416137695314	-480.9001770019532	653.2301025390626	-608.7330932617189	-458.8494262695314	690.4545898437501	-698.0397338867189	-427.450164794922	654.7218017578126	-1005.283203125	-417.3297729492189	643.1329956054689	-783.8406372070315	-528.2200927734376	779.344177246094	-878.8110351562502	-558.9559326171876	760.6797485351564	-901.917175292969	-549.6495361328126	760.0922851562501	-847.1296386718752	-451.828338623047	556.7323608398439	-1109.307983398438	-368.2481994628907	546.7307128906251	-1128.782470703125	-343.2817077636719	585.1676635742189	-1117.158203125	-337.7378845214844	495.8477478027345	-1135.6962890625	-209.9095764160157	420.9769592285157	-1144.9619140625	-192.0032196044922	401.938934326172	-1030.733032226563	-255.0936889648438	262.9757690429688	-1065.45751953125	-305.9206848144532	234.4912109375001	-1133.333129882813	-280.9430847167969	217.8210754394532	-1096.66748046875	-337.9694213867188	165.6078643798828	-1062.7236328125	-448.7020874023439	93.06174468994142	-1105.854248046875	-423.7681579589845	100.3045806884766	-1020.087341308594	-514.4902343750001	50.12960052490236	-1056.330810546875	-296.9477539062501	59.98512268066408	-1050.445678710938	-302.5384826660157	62.33494949340822	-1097.02197265625	-340.0343933105469	42.42797851562501	-1141.747192382813	-378.1112060546876	511.6035766601564	-688.6981201171876	-309.7078857421876	521.4807128906251	-687.2119750976564	-294.4776000976563	548.3410034179689	-695.0415039062501	-254.0713348388672	457.7413940429689	-695.4641723632814	-186.4026184082032	400.1695556640626	-705.1894531250001	-189.3253936767578	393.082733154297	-825.550720214844	-202.5153045654297	271.0982666015626	-739.7614746093751	-300.5500793457032	257.5787048339844	-687.0181274414064	-272.5854492187501	227.8800659179688	-706.4571533203126	-298.1607971191407	182.9898681640625	-733.2750244140626	-449.3282470703126	98.56011962890628	-705.5697021484376	-427.7161254882814	99.6096115112305	-794.3936157226565	-513.7812500000001	54.36025619506837	-752.6203613281251	-301.0516052246094	60.35542297363283	-763.2219848632814	-297.4881286621094	58.56880569458009	-726.9019165039064	-334.9221191406251	41.48341369628907	-673.7026367187501	nan	nan	nan	nan	nan	nan	
